<?xml version="1.0"?>
<!DOCTYPE svg PUBLIC "-//W3C//DTD SVG 1.1//EN" "http://www.w3.org/Graphics/SVG/1.1/DTD/svg11.dtd">
<svg width="72.42mm" height="97.42mm" viewBox="0 0 72.42 97.42" xmlns="http://www.w3.org/2000/svg" version="1.1">
<g id="Sketch" transform="translate(0.710000,96.710000) scale(1,-1)">
<path id="Sketch_w0000"  d="M 0.0 0.0 L 71.0 0.0 L 71.0 96.0 L 0.0 96.0 L 0.0 0.0 " stroke="#000000" stroke-width="0.35 px" style="stroke-width:0.35;stroke-miterlimit:4;stroke-dasharray:none;fill:none;fill-rule: evenodd "/>
<circle cx="5.0" cy="55.0" r="1.6" stroke="#000000" stroke-width="0.35 px" style="stroke-width:0.35;stroke-miterlimit:4;stroke-dasharray:none;fill:none"/>
<circle cx="66.0" cy="55.0" r="1.6" stroke="#000000" stroke-width="0.35 px" style="stroke-width:0.35;stroke-miterlimit:4;stroke-dasharray:none;fill:none"/>
<circle cx="66.0" cy="15.0" r="1.6" stroke="#000000" stroke-width="0.35 px" style="stroke-width:0.35;stroke-miterlimit:4;stroke-dasharray:none;fill:none"/>
<circle cx="5.0" cy="15.0" r="1.6" stroke="#000000" stroke-width="0.35 px" style="stroke-width:0.35;stroke-miterlimit:4;stroke-dasharray:none;fill:none"/>
<circle cx="20.0" cy="91.0" r="1.6" stroke="#000000" stroke-width="0.35 px" style="stroke-width:0.35;stroke-miterlimit:4;stroke-dasharray:none;fill:none"/>
<circle cx="51.0" cy="91.0" r="1.6" stroke="#000000" stroke-width="0.35 px" style="stroke-width:0.35;stroke-miterlimit:4;stroke-dasharray:none;fill:none"/>
<path id="Sketch_w0007"  d="M 21.6 51.0 A 1.6 1.6 0 0 1 18.4 51.0 L 18.4 36.0 A 1.6 1.6 0 0 1 21.6 36.0 L 21.6 51.0 " stroke="#000000" stroke-width="0.35 px" style="stroke-width:0.35;stroke-miterlimit:4;stroke-dasharray:none;fill:none;fill-rule: evenodd "/>
<path id="Sketch_w0008"  d="M 21.6 20.0 A 1.6 1.6 0 0 1 18.4 20.0 L 18.4 5.0 A 1.6 1.6 0 0 1 21.6 5.0 L 21.6 20.0 " stroke="#000000" stroke-width="0.35 px" style="stroke-width:0.35;stroke-miterlimit:4;stroke-dasharray:none;fill:none;fill-rule: evenodd "/>
<path id="Sketch_w0009"  d="M 52.6 20.0 A 1.6 1.6 0 0 1 49.4 20.0 L 49.4 5.0 A 1.6 1.6 0 0 1 52.6 5.0 L 52.6 20.0 " stroke="#000000" stroke-width="0.35 px" style="stroke-width:0.35;stroke-miterlimit:4;stroke-dasharray:none;fill:none;fill-rule: evenodd "/>
<path id="Sketch_w0010"  d="M 52.6 51.0 A 1.6 1.6 0 0 1 49.4 51.0 L 49.4 36.0 A 1.6 1.6 0 0 1 52.6 36.0 L 52.6 51.0 " stroke="#000000" stroke-width="0.35 px" style="stroke-width:0.35;stroke-miterlimit:4;stroke-dasharray:none;fill:none;fill-rule: evenodd "/>
<path id="Sketch_w0011"  d="M 24.0 76.0 A 4.0 4.0 0 0 1 16.0 76.0 L 16.0 61.0 A 4.0 4.0 0 0 1 24.0 61.0 L 24.0 76.0 " stroke="#000000" stroke-width="0.35 px" style="stroke-width:0.35;stroke-miterlimit:4;stroke-dasharray:none;fill:none;fill-rule: evenodd "/>
<path id="Sketch_w0012"  d="M 55.0 76.0 A 4.0 4.0 0 0 1 47.0 76.0 L 47.0 61.0 A 4.0 4.0 0 0 1 55.0 61.0 L 55.0 76.0 " stroke="#000000" stroke-width="0.35 px" style="stroke-width:0.35;stroke-miterlimit:4;stroke-dasharray:none;fill:none;fill-rule: evenodd "/>
<path id="Sketch_w0013"  d="M 45.5 35.5 A 10.0 10.0 0 0 1 25.5 35.5 L 25.5 20.5 A 10.0 10.0 0 0 1 45.5 20.5 L 45.5 35.5 " stroke="#000000" stroke-width="0.35 px" style="stroke-width:0.35;stroke-miterlimit:4;stroke-dasharray:none;fill:none;fill-rule: evenodd "/>
<title>Sketch</title>
</g>
</svg>